<?xml version="1.0" encoding="utf-8"?>
<!-- Generator: Adobe Illustrator 27.9.0, SVG Export Plug-In . SVG Version: 6.00 Build 0)  -->
<svg version="1.1" id="Layer_1" xmlns="http://www.w3.org/2000/svg" xmlns:xlink="http://www.w3.org/1999/xlink" x="0px" y="0px"
	 viewBox="0 0 839.05 595.28" style="enable-background:new 0 0 839.05 595.28;" xml:space="preserve">
<style type="text/css">
	.st0{fill:#A7A9AC;}
	.st1{fill:none;stroke:#FFFFFF;stroke-width:0.629;}
</style>
<g>
	<path class="st0" d="M446.95,362.51c-2.46-2.46-4.61-5.24-6.36-8.28l34.61-19.98L446.95,362.51z"/>
	<path class="st1" d="M446.95,362.51c-2.46-2.46-4.61-5.24-6.36-8.28l34.61-19.98L446.95,362.51z"/>
	<path class="st0" d="M452.47,373.61c-3.44-1.99-6.6-4.43-9.4-7.22l32.13-32.13L452.47,373.61z"/>
	<path class="st1" d="M452.47,373.61c-3.44-1.99-6.6-4.43-9.4-7.22l32.13-32.13L452.47,373.61z"/>
	<path class="st0" d="M461.83,384.17c-4.41-1.18-8.61-2.93-12.47-5.17l25.84-44.75L461.83,384.17z"/>
	<path class="st1" d="M461.83,384.17c-4.41-1.18-8.61-2.93-12.47-5.17l25.84-44.75L461.83,384.17z"/>
	<path class="st0" d="M475.18,392.15c-5.17,0-10.19-0.68-14.96-1.95l14.99-55.94L475.18,392.15z"/>
	<path class="st1" d="M475.18,392.15c-5.17,0-10.19-0.68-14.96-1.95l14.99-55.94L475.18,392.15z"/>
	<path class="st0" d="M491.8,396.2c-5.3,1.42-10.87,2.18-16.62,2.18v-64.13L491.8,396.2z"/>
	<path class="st1" d="M491.8,396.2c-5.3,1.42-10.87,2.18-16.62,2.18v-64.13L491.8,396.2z"/>
	<path class="st0" d="M510.38,395.19c-5.26,3.04-10.95,5.43-16.96,7.03l-18.21-67.97L510.38,395.19z"/>
	<path class="st1" d="M510.38,395.19c-5.26,3.04-10.95,5.43-16.96,7.03l-18.21-67.97L510.38,395.19z"/>
	<path class="st0" d="M529.35,388.4c-4.72,4.72-10.05,8.82-15.86,12.18l-38.29-66.33L529.35,388.4z"/>
	<path class="st1" d="M529.35,388.4c-4.72,4.72-10.05,8.82-15.86,12.18l-38.29-66.33L529.35,388.4z"/>
	<path class="st0" d="M546.93,375.66c-3.64,6.28-8.08,12.04-13.18,17.14l-58.55-58.55L546.93,375.66z"/>
	<path class="st1" d="M546.93,375.66c-3.64,6.28-8.08,12.04-13.18,17.14l-58.55-58.55L546.93,375.66z"/>
	<path class="st0" d="M561.23,357.31c-2.03,7.61-5.05,14.81-8.91,21.47l-77.11-44.52L561.23,357.31z"/>
	<path class="st1" d="M561.23,357.31c-2.03,7.61-5.05,14.81-8.91,21.47l-77.11-44.52L561.23,357.31z"/>
	<path class="st0" d="M570.48,334.25c0,8.53-1.12,16.8-3.23,24.66l-92.04-24.66H570.48z"/>
	<path class="st1" d="M570.48,334.25c0,8.53-1.12,16.8-3.23,24.66l-92.04-24.66H570.48z"/>
	<path class="st0" d="M573.27,307.97c2.24,8.38,3.44,17.19,3.44,26.28h-101.5L573.27,307.97z"/>
	<path class="st1" d="M573.27,307.97c2.24,8.38,3.44,17.19,3.44,26.28h-101.5L573.27,307.97z"/>
	<path class="st0" d="M568.87,280.19c4.68,8.09,8.35,16.83,10.81,26.07l-104.48,28L568.87,280.19z"/>
	<path class="st1" d="M568.87,280.19c4.68,8.09,8.35,16.83,10.81,26.07l-104.48,28L568.87,280.19z"/>
	<path class="st0" d="M575.69,276.24c-5.1-8.81-11.32-16.88-18.47-24.02l-82.01,82.04L575.69,276.24z"/>
	<path class="st1" d="M575.69,276.24c-5.1-8.81-11.32-16.88-18.47-24.02l-82.01,82.04L575.69,276.24z"/>
	<path class="st0" d="M563.2,246.26c-7.66-7.66-16.32-14.33-25.77-19.79l-62.23,107.79L563.2,246.26z"/>
	<path class="st1" d="M563.2,246.26c-7.66-7.66-16.32-14.33-25.77-19.79l-62.23,107.79L563.2,246.26z"/>
	<path class="st0" d="M541.96,218.61c-9.98-5.78-20.79-10.3-32.19-13.35l-34.56,128.99L541.96,218.61z"/>
	<path class="st1" d="M541.96,218.61c-9.98-5.78-20.79-10.3-32.19-13.35l-34.56,128.99L541.96,218.61z"/>
	<path class="st0" d="M512.28,195.88c-11.84-3.17-24.24-4.86-37.08-4.86l0.01,143.23L512.28,195.88z"/>
	<path class="st1" d="M512.28,195.88c-11.84-3.17-24.24-4.86-37.08-4.86l0.01,143.23L512.28,195.88z"/>
	<path class="st0" d="M435.42,185.78c12.67-3.39,26.04-5.19,39.79-5.19l0.01,153.66L435.42,185.78z"/>
	<path class="st1" d="M435.42,185.78c12.67-3.39,26.04-5.19,39.79-5.19l0.01,153.66L435.42,185.78z"/>
	<path class="st0" d="M432.52,174.97c-14.09,3.76-27.43,9.35-39.77,16.48l82.45,142.8L432.52,174.97z"/>
	<path class="st1" d="M432.52,174.97c-14.09,3.76-27.43,9.35-39.77,16.48l82.45,142.8L432.52,174.97z"/>
	<path class="st0" d="M350.14,209.19c10.89-10.89,23.2-20.37,36.61-28.13l88.45,153.19L350.14,209.19z"/>
	<path class="st1" d="M350.14,209.19c10.89-10.89,23.2-20.37,36.61-28.13l88.45,153.19L350.14,209.19z"/>
	<path class="st0" d="M338.77,197.83c-11.88,11.88-22.21,25.3-30.68,39.94l167.12,96.49L338.77,197.83z"/>
	<path class="st1" d="M338.77,197.83c-11.88,11.88-22.21,25.3-30.68,39.94l167.12,96.49L338.77,197.83z"/>
	<path class="st0" d="M272.19,279.86c4.8-17.96,11.91-34.97,21.01-50.69l182.01,105.09L272.19,279.86z"/>
	<path class="st1" d="M272.19,279.86c4.8-17.96,11.91-34.97,21.01-50.69l182.01,105.09L272.19,279.86z"/>
	<path class="st0" d="M254.19,275.03c-5.05,18.89-7.74,38.74-7.74,59.22h228.76L254.19,275.03z"/>
	<path class="st1" d="M254.19,275.03c-5.05,18.89-7.74,38.74-7.74,59.22h228.76L254.19,275.03z"/>
	<path class="st0" d="M234.39,398.78c-5.5-20.58-8.43-42.22-8.43-64.53h249.25L234.39,398.78z"/>
	<path class="st1" d="M234.39,398.78c-5.5-20.58-8.43-42.22-8.43-64.53h249.25L234.39,398.78z"/>
	<path class="st0" d="M475.21,334.25l-33.96,9.09c0.8,3,2,5.85,3.52,8.48L475.21,334.25z"/>
	<path class="st1" d="M475.21,334.25l-33.96,9.09c0.8,3,2,5.85,3.52,8.48L475.21,334.25z"/>
</g>
</svg>
